<?xml version="1.0" encoding="utf-8"?>
<!-- Generator: Adobe Illustrator 24.0.2, SVG Export Plug-In . SVG Version: 6.00 Build 0)  -->
<svg version="1.1" id="Layer_1" xmlns="http://www.w3.org/2000/svg" xmlns:xlink="http://www.w3.org/1999/xlink" x="0px" y="0px"
	 viewBox="0 0 841.89 595.28" style="enable-background:new 0 0 841.89 595.28;" xml:space="preserve">
<style type="text/css">
	.st0{fill:#FFFFFF;}
	.st1{fill:#ED1C24;}
	.st2{fill:#0E82C6;}
</style>
<circle class="st0" cx="404.02" cy="297.64" r="271.8"/>
<g>
	<rect x="257.1" y="379.85" class="st1" width="293.85" height="71.96"/>
</g>
<g>
	<g>
		<path class="st0" d="M457.52,413.9c0-4.38,0-8.76,0-13.3c-0.64-0.12-1.31-0.24-2.03-0.37c0-0.79,0-1.5,0-2.33c2.6,0,5.12,0,7.73,0
			c0,0.8,0,1.51,0,2.35c-0.78,0.09-1.55,0.18-2.43,0.28c0,4.46,0,8.9,0,13.97c0.91-0.64,1.83-0.93,2.03-1.49
			c1.45-4.04,2.74-8.12,4.14-12.36c-0.82-0.15-1.48-0.28-2.23-0.42c0-0.75,0-1.46,0-2.31c2.67,0,5.35,0,8.13,0c0,0.74,0,1.45,0,2.46
			c-2.95-0.87-3.14,1.5-3.75,3.35c-0.82,2.44-1.24,5.08-2.4,7.34c-1.65,3.21-0.87,6.07,0.28,9.06c1.02,2.67,2.01,5.36,2.93,8.07
			c0.63,1.85,1.2,3.65,3.85,3.01c0,1.05,0,1.91,0,2.91c-2.67,0-5.34,0-8.13,0c0-0.88,0-1.73,0-2.76c0.55-0.08,1.16-0.17,1.8-0.26
			c0-0.12,0.03-0.24,0-0.35c-1.51-4.25-2.97-8.52-4.58-12.73c-0.21-0.54-1.15-0.8-2.07-1.39c0,5.18,0,9.76,0,14.48
			c0.76,0.05,1.47,0.11,2.35,0.17c0,0.89,0,1.8,0,2.85c-2.46,0-4.98,0-7.62,0c0-0.9,0-1.75,0-2.74c0.58-0.09,1.2-0.19,1.96-0.31
			c0-4.56,0-9.15,0-13.75c-1.74-0.8-1.98,0.74-2.32,1.66c-1.46,3.88-2.78,7.81-4.21,11.91c0.59,0.19,1.14,0.37,1.73,0.55
			c0,0.89,0,1.74,0,2.71c-2.6,0-5.12,0-7.73,0c0-0.97,0-1.82,0-2.87c2.58,0.51,3.05-1.31,3.67-3.13c1.37-4.07,2.85-8.1,4.25-12.16
			c0.12-0.35,0.16-0.81,0.05-1.16c-1.5-4.48-2.94-8.98-4.63-13.39c-0.27-0.69-1.65-0.96-2.83-1.6c0-0.27,0-1.03,0-1.93
			c2.65,0,5.32,0,8.09,0c0,0.78,0,1.48,0,2.35c-0.66,0.1-1.34,0.19-2.1,0.31c1.35,4.12,2.62,8.14,4.02,12.12
			c0.23,0.64,1.04,1.08,1.59,1.61C457.21,414.16,457.37,414.03,457.52,413.9z"/>
	</g>
	<g>
		<path class="st0" d="M491.53,431.08c0.92,0.06,1.63,0.1,2.45,0.15c0,0.96,0,1.81,0,2.83c-2.62,0-5.29,0-8.09,0c0-0.9,0-1.8,0-2.8
			c0.78-0.07,1.49-0.13,2.35-0.2c0-7.28,0-14.58,0-21.87c-0.06-0.02-0.12-0.05-0.18-0.07c-2.31,8.32-4.62,16.63-6.94,25.01
			c-1.74,0-3.48,0-5.35,0c0-0.92,0-1.77,0-2.77c0.57-0.11,1.24-0.25,1.98-0.39c0-10.15,0-20.24,0-30.48
			c-0.64-0.08-1.26-0.17-1.99-0.26c0-0.78,0-1.54,0-2.4c2.55,0,5.01,0,7.62,0c0,0.78,0,1.53,0,2.43c-0.63,0.06-1.25,0.12-2.17,0.2
			c0,7.51,0,14.93,0,22.56c2.35-8.47,4.66-16.81,6.99-25.2c1.74,0,3.47,0,5.32,0c0,0.78,0,1.49,0,2.33c-0.6,0.11-1.27,0.24-2,0.38
			C491.53,410.71,491.53,420.8,491.53,431.08z"/>
	</g>
	<g>
		<path class="st0" d="M284.48,431.79c0,0.83,0,1.54,0,2.35c-2.55,0-5.01,0-7.71,0c-0.03-0.73-0.07-1.49-0.11-2.38
			c0.9-0.08,1.67-0.16,2.33-0.22c0-4.8,0-9.49,0-14.31c-2.23,0-4.16,0-6.2,0c0,4.75,0,9.41,0,14.23c0.59,0.1,1.2,0.2,1.95,0.32
			c0,0.73,0,1.49,0,2.36c-2.5,0-4.96,0-7.65,0c-0.03-0.73-0.07-1.48-0.11-2.37c0.75-0.09,1.37-0.17,2.09-0.26
			c0-10.13,0-20.22,0-30.47c-0.61-0.12-1.28-0.25-2.01-0.39c0-0.92,0-1.78,0-2.76c2.58,0,5.1,0,7.72,0c0,0.93,0,1.78,0,2.77
			c-0.62,0.1-1.24,0.19-1.98,0.31c0,4.42,0,8.85,0,13.39c1.95,0,3.83,0,5.88,0c0-4.39,0-8.81,0-13.41c-0.55-0.07-1.17-0.16-1.9-0.26
			c0-0.87,0-1.73,0-2.76c2.45,0,4.96,0,7.68,0c0.04,0.79,0.08,1.63,0.12,2.63c-0.71,0.15-1.38,0.29-2.13,0.45
			c0,10.1,0,20.19,0,30.43C283.07,431.55,283.68,431.65,284.48,431.79z"/>
	</g>
	<g>
		<path class="st0" d="M349.35,434.1c0-0.99,0-1.64,0-2.42c0.64-0.1,1.26-0.2,2.02-0.33c0-10.27,0-20.57,0-31.02
			c-0.64-0.06-1.26-0.11-1.97-0.17c0-0.83,0-1.54,0-2.53c3.55,0,7.14-0.24,10.67,0.13c1.18,0.12,2.72,1.59,3.19,2.8
			c1.42,3.64,1.39,7.51,0.4,11.28c-0.26,0.98-1.18,1.78-1.42,2.12c0.74,1.99,1.74,3.66,1.91,5.4c0.3,3.12,0.1,6.29,0.08,9.45
			c-0.02,3-1.83,5.1-4.86,5.25C356.1,434.22,352.81,434.1,349.35,434.1z M355.13,431.48c0.62,0,1.06,0.03,1.49,0
			c3.79-0.32,4.56-1.17,4.56-4.99c0-1.82,0.04-3.65-0.01-5.47c-0.09-3.61-1.55-6.01-6.04-5.2
			C355.13,420.93,355.13,426.08,355.13,431.48z M355.17,413.01c0.94,0,1.8,0.02,2.67,0c1.82-0.05,2.83-1.03,2.89-2.82
			c0.08-2.41,0.07-4.83,0-7.24c-0.04-1.6-1.01-2.53-2.58-2.67c-1.13-0.11-2.29-0.02-3.61-0.02
			C354.75,404.57,354.95,408.62,355.17,413.01z"/>
	</g>
	<g>
		<path class="st0" d="M372.2,417.53c0,4.71,0,9.03,0,13.52c1.82,0,3.6,0,5.63,0c0-3.35,0-6.75,0-10.26c1.09,0,1.94,0,2.96,0
			c0,4.38,0,8.8,0,13.36c-4.71,0-9.42,0-14.23,0c0-0.93,0-1.78,0-2.77c0.77-0.09,1.53-0.18,2.42-0.29c0-10.17,0-20.31,0-30.56
			c-0.78-0.06-1.49-0.12-2.36-0.19c0-0.76,0-1.52,0-2.41c4.69,0,9.41,0,14.23,0c0,4.31,0,8.53,0,12.9c-0.93,0-1.82,0-2.89,0
			c0-3.37,0-6.72,0-10.23c-1.94,0-3.72,0-5.65,0c0,4.53,0,9.1,0,13.91c1.67,0,3.32,0,5.04,0c0,1.09,0,1.94,0,3.03
			C375.67,417.53,374.03,417.53,372.2,417.53z"/>
	</g>
	<g>
		<path class="st0" d="M293.9,420.67c-0.48,3.68-0.94,7.17-1.41,10.77c0.71,0.11,1.34,0.2,2.08,0.31c0,0.77,0,1.53,0,2.38
			c-2.55,0-5.02,0-7.63,0c0-0.79,0-1.54,0-2.43c0.73-0.05,1.44-0.11,2.29-0.17c0.5-3.74,1.01-7.5,1.52-11.26
			c0.68-5.06,1.37-10.13,2.05-15.19c0.2-1.5,0.6-3.01,0.54-4.5c-0.1-2.33,0.79-3.22,3.07-2.85c0.49,0.08,1.01,0.01,1.6,0.01
			c1.56,11.28,3.11,22.45,4.67,33.74c0.83,0.07,1.6,0.14,2.46,0.21c0,0.8,0,1.51,0,2.37c-2.64,0-5.31,0-8.11,0c0-0.77,0-1.53,0-2.36
			c0.85-0.09,1.63-0.17,2.42-0.25c-0.42-2.79-1.17-5.48-1.12-8.16c0.05-2.65-1.14-2.94-3.17-2.72
			C294.8,420.65,294.44,420.65,293.9,420.67z M295.92,403.93c-0.06,0.03-0.11,0.06-0.17,0.09c-0.51,4.6-1.02,9.2-1.53,13.84
			c1.36,0,2.42,0,3.47,0C297.09,413.12,296.51,408.53,295.92,403.93z"/>
	</g>
	<g>
		<path class="st0" d="M415.07,410.88c-0.95,0-1.8,0-2.81,0c0-3.43,0-6.78,0-10.29c-1.94,0-3.72,0-5.65,0c0,4.54,0,9.1,0,13.84
			c1.62,0,3.2,0,5.02,0c0.04,0.91,0.08,1.66,0.13,2.66c-1.77,0-3.42,0-5.17,0c0,4.75,0,9.26,0,13.95c1.75,0,3.53,0,5.56,0
			c0-3.35,0-6.75,0-10.26c1.09,0,1.94,0,2.96,0c0,4.38,0,8.8,0,13.36c-4.57,0-9.14,0-13.8,0c0-0.93,0-1.78,0-2.77
			c0.63-0.09,1.25-0.19,1.98-0.3c0-10.15,0-20.3,0-30.55c-0.78-0.06-1.49-0.12-2.36-0.19c0-0.76,0-1.52,0-2.41c4.63,0,9.3,0,14.15,0
			C415.07,402.13,415.07,406.4,415.07,410.88z"/>
	</g>
	<g>
		<path class="st0" d="M337.55,414.44c1.65,0,3.24,0,4.98,0c0,1.06,0,1.96,0,3.1c-1.63,0-3.27,0-5.01,0c0,4.75,0,9.27,0,13.94
			c1.79,0,3.57,0,5.6,0c0-3.39,0-6.79,0-10.29c1.09,0,1.94,0,2.94,0c0,4.27,0,8.55,0,12.95c-4.69,0-9.35,0-14.24,0
			c-0.03-0.72-0.07-1.47-0.11-2.36c0.89-0.09,1.66-0.17,2.53-0.26c0-10.35,0-20.65,0-31.03c-0.81-0.05-1.53-0.1-2.38-0.16
			c0-0.8,0-1.55,0-2.43c4.67,0,9.34,0,14.18,0c0,4.24,0,8.52,0,12.92c-0.88,0-1.78,0-2.85,0c0-3.41,0-6.76,0-10.26
			c-1.94,0-3.72,0-5.64,0C337.55,405.14,337.55,409.7,337.55,414.44z"/>
	</g>
	<g>
		<path class="st0" d="M498.94,411.35c-1.09,0-1.94,0-2.93,0c0-4.3,0-8.58,0-13.19c6.36,0,12.66,0,19.08,0c0,4.23,0,8.59,0,13.12
			c-0.89,0-1.79,0-2.93,0c0-3.38,0-6.79,0-10.29c-1.67,0-3.11,0-4.71,0c0,10.13,0,20.27,0,30.57c1.02,0.07,2.08,0.15,3.24,0.23
			c0,0.78,0,1.49,0,2.35c-3.21,0-6.46,0-9.84,0c0-0.74,0-1.49,0-2.4c1.06,0,2.06,0,3.22,0c0-10.29,0-20.42,0-30.71
			c-1.61,0-3.25,0-5.12,0C498.94,404.46,498.94,407.86,498.94,411.35z"/>
	</g>
	<g>
		<path class="st0" d="M389.62,416.41c0,4.91,0,9.74,0,14.73c1.31,0,2.31,0,3.47,0c0,1.05,0,1.96,0,3c-2.91,0-5.87,0-8.94,0
			c0-0.9,0-1.75,0-2.74c0.58-0.09,1.2-0.19,1.96-0.31c0-10.11,0-20.25,0-30.56c-0.61-0.06-1.23-0.13-1.98-0.2
			c-0.03-0.77-0.07-1.48-0.11-2.49c3.86,0,7.67-0.3,11.37,0.18c1.17,0.15,2.79,2.31,2.95,3.7c0.43,3.62,0.35,7.34,0.1,10.99
			c-0.16,2.37-1.95,3.54-4.4,3.56c-1.39,0.01-2.78,0.02-4.17,0.05C389.76,416.3,389.63,416.41,389.62,416.41z M389.42,413.63
			c0.81,0,1.53,0,2.24,0c3.1,0,3.81-0.71,3.82-3.82c0.01-2.12-0.01-4.24,0-6.36c0.01-1.59-0.75-2.7-2.27-2.96
			c-1.24-0.22-2.55-0.04-3.79-0.04C389.42,404.99,389.42,409.21,389.42,413.63z"/>
	</g>
	<g>
		<path class="st0" d="M525.34,400.6c-0.83,0.07-1.45,0.13-2.14,0.19c0,4.94,0,9.75,0,14.87c1.08,0,2.15,0.07,3.21-0.01
			c3.99-0.33,5.46,1.35,5.82,5.04c0.33,3.36-0.02,6.82-0.41,10.19c-0.21,1.81-1.6,3.14-3.58,3.2c-3.5,0.1-7.01,0.03-10.67,0.03
			c0-0.86,0-1.62,0-2.52c0.75-0.06,1.52-0.12,2.18-0.18c0-10.23,0-20.34,0-30.6c-0.89-0.08-1.51-0.14-2.23-0.2c0-0.94,0-1.8,0-2.82
			c2.47,0,4.99,0,7.69,0C525.25,398.62,525.29,399.47,525.34,400.6z M523.21,431.5c0.76,0,1.27,0,1.78,0
			c2.97,0.02,3.57-0.31,4.11-3.19c0.32-1.7,0.27-3.49,0.16-5.23c-0.31-4.76-1.65-5.41-6.05-4.44
			C523.21,422.84,523.21,427.05,523.21,431.5z"/>
	</g>
	<g>
		<path class="st0" d="M325.37,397.83c1.14-0.39,1.99-0.68,3.1-1.06c0,4.64,0,8.92,0,13.33c-0.89,0-1.79,0-2.91,0
			c0-2.16-0.2-4.29,0.05-6.37c0.27-2.25-1.98-4.38-3.35-4.46c-2-0.11-3.72,1.92-3.74,4.46c-0.04,5.93-0.05,11.87,0.01,17.8
			c0.03,2.46,0.17,4.92,0.45,7.36c0.24,2.14,2,2.58,3.7,2.39c1.75-0.19,2.83-1.42,2.87-3.26c0.05-2.48,0.01-4.95,0.01-7.54
			c1.03,0,1.88,0,3.03,0c0,3.14,0.21,6.35-0.11,9.51c-0.11,1.11-1.3,2.47-2.36,3.07c-2.49,1.41-5.21,1.46-7.84,0.1
			c-2.42-1.25-2.83-3.46-2.83-5.87c0-7.98,0.08-15.97-0.05-23.95c-0.04-2.65,0.7-4.74,2.89-6.14
			C320.2,395.98,323.64,396.53,325.37,397.83z"/>
	</g>
	<g>
		<path class="st0" d="M539.05,424.83c-1.04,0-1.74,0-2.81,0c0-9.28,0-18.56,0-27.94c0.86,0,1.86,0,2.81,0
			C539.05,406.19,539.05,415.47,539.05,424.83z"/>
	</g>
	<g>
		<path class="st0" d="M421.5,416.85c0-1.1,0-2.1,0-3.22c7.13,0,14.17,0,21.33,0c0,1.07,0,2.06,0,3.22
			C435.83,416.85,428.78,416.85,421.5,416.85z"/>
	</g>
	<g>
		<path class="st0" d="M536.4,434.14c0-1.9,0-3.62,0-5.47c0.82,0,1.57,0,2.43,0c0,1.83,0,3.61,0,5.47
			C538.02,434.14,537.32,434.14,536.4,434.14z"/>
	</g>
</g>
<g>
	<g>
		<g>
			<g>
				<g>
					<path class="st1" d="M326.17,126.56c-1.15-9.61-15.63-12.78-15.77-12.81l1.9-9.15c0.63,0.13,11.54,2.47,18.2,10
						c6.07-7.82,16.33-10.8,16.92-10.97l2.53,8.99c-0.12,0.04-13.71,4.05-14.49,13.75L326.17,126.56z"/>
				</g>
			</g>
		</g>
	</g>
	<g>
		<g>
			<g>
				<g>
					<g>
						<g>
							<path class="st2" d="M497.08,211.7c-1.32-11.02-17.92-14.66-18.09-14.69l2.18-10.49c0.72,0.15,13.23,2.83,20.88,11.47
								c6.97-8.97,18.73-12.39,19.41-12.58l2.9,10.31c-0.14,0.04-15.72,4.65-16.62,15.78L497.08,211.7z"/>
						</g>
					</g>
				</g>
			</g>
		</g>
		<g>
			<g>
				<g>
					<g>
						<g>
							<path class="st2" d="M302.87,260.89c-1.32-11.02-17.92-14.66-18.09-14.69l2.17-10.49c0.72,0.15,13.23,2.83,20.88,11.46
								c6.97-8.97,18.73-12.39,19.41-12.58l2.9,10.31c-0.14,0.04-15.72,4.65-16.62,15.78L302.87,260.89z"/>
						</g>
					</g>
				</g>
			</g>
		</g>
		<path class="st2" d="M465.1,352.9l-16.65-170.67h-19.1v-8.9h14.23v-10.71h-14.23v-19.56l-24.56-27.1l-0.07,4.15l-0.07-4.15
			l-24.56,27.1v19.56h-14.18v10.71h14.18v8.9h-19.04L344.3,352.9h-59.42v10.71h239.98V352.9H465.1z M390.98,352.9v-40.89h59.18
			l3.93,40.89H390.98z M449.13,301.3h-58.15v-31.52h55.12L449.13,301.3z M367.07,231.31h13.2v27.76h-15.88L367.07,231.31z
			 M390.98,231.31h51.42l2.67,27.76h-54.09V231.31z M441.37,220.59h-50.39v-27.65h47.73L441.37,220.59z M390.98,147l13.74-15.16
			L418.47,147v15.61h-27.48V147z M390.98,173.33h27.48v8.9h-27.48V173.33z M380.27,192.94v27.65h-12.16l2.67-27.65H380.27z
			 M363.35,269.78h16.92v31.52h-19.96L363.35,269.78z M359.27,312.01h21v40.89h-24.95L359.27,312.01z"/>
	</g>
</g>
</svg>
