<?xml version="1.0" encoding="utf-8"?>
<!-- Generator: Adobe Illustrator 24.0.2, SVG Export Plug-In . SVG Version: 6.00 Build 0)  -->
<svg version="1.1" id="Layer_1" xmlns="http://www.w3.org/2000/svg" xmlns:xlink="http://www.w3.org/1999/xlink" x="0px" y="0px"
	 viewBox="0 0 841.9 595.3" style="enable-background:new 0 0 841.9 595.3;" xml:space="preserve">
<style type="text/css">
	.st0{fill:#FFFFFF;}
</style>
<g>
	<g>
		<g>
			<g>
				<g>
					<path class="st0" d="M292.3,105.4c-2-16.6-27.1-22.1-27.3-22.2l3.3-15.8c1.1,0.2,20,4.3,31.5,17.3c10.5-13.5,28.3-18.7,29.3-19
						l4.4,15.6c-0.2,0.1-23.7,7-25.1,23.8L292.3,105.4z"/>
				</g>
			</g>
		</g>
	</g>
	<g>
		<g>
			<g>
				<g>
					<g>
						<g>
							<path class="st0" d="M588.3,252.8c-2.3-19.1-31-25.4-31.3-25.4l3.8-18.2c1.2,0.3,22.9,4.9,36.2,19.9
								c12.1-15.5,32.4-21.5,33.6-21.8l5,17.9c-0.2,0.1-27.2,8.1-28.8,27.3L588.3,252.8z"/>
						</g>
					</g>
				</g>
			</g>
		</g>
		<g>
			<g>
				<g>
					<g>
						<g>
							<path class="st0" d="M252,338c-2.3-19.1-31-25.4-31.3-25.4l3.8-18.2c1.2,0.3,22.9,4.9,36.2,19.8
								c12.1-15.5,32.4-21.5,33.6-21.8l5,17.9c-0.2,0.1-27.2,8.1-28.8,27.3L252,338z"/>
						</g>
					</g>
				</g>
			</g>
		</g>
		<path class="st0" d="M533,497.4l-28.8-295.6H471v-15.4h24.6v-18.5H471V134L428.5,87l-0.1,7.2l-0.1-7.2L385.7,134v33.9h-24.6v18.5
			h24.6v15.4h-33l-29,295.6H220.8v18.5h415.6v-18.5H533z M404.6,497.4v-70.8h102.5l6.8,70.8L404.6,497.4L404.6,497.4z M505.3,408
			H404.6v-54.6H500L505.3,408z M363.2,286.8H386v48.1h-27.5L363.2,286.8z M404.6,286.8h89.1l4.6,48.1h-93.7L404.6,286.8L404.6,286.8
			z M491.9,268.2h-87.3v-47.9h82.7L491.9,268.2z M404.6,140.8l23.8-26.3l23.8,26.3v27h-47.6L404.6,140.8L404.6,140.8z M404.6,186.4
			h47.6v15.4h-47.6V186.4z M386,220.3v47.9H365l4.6-47.9H386z M356.7,353.4H386V408h-34.6L356.7,353.4z M349.7,426.6H386v70.8h-43.2
			L349.7,426.6z"/>
	</g>
</g>
</svg>
